<?xml version="1.0" encoding="UTF-8" standalone="no"?>
<svg
   xmlns:dc="http://purl.org/dc/elements/1.1/"
   xmlns:cc="http://creativecommons.org/ns#"
   xmlns:rdf="http://www.w3.org/1999/02/22-rdf-syntax-ns#"
   xmlns:svg="http://www.w3.org/2000/svg"
   xmlns="http://www.w3.org/2000/svg"
   id="svg1048"
   version="1.1"
   viewBox="0 0 48 48"
   height="181.41733"
   width="181.41733">
  <defs
     id="defs1042" />
  <metadata
     id="metadata1045">
    <rdf:RDF>
      <cc:Work
         rdf:about="">
        <dc:format>image/svg+xml</dc:format>
        <dc:type
           rdf:resource="http://purl.org/dc/dcmitype/StillImage" />
        <dc:title></dc:title>
      </cc:Work>
    </rdf:RDF>
  </metadata>
  <g
     transform="translate(-38.393533,-29.83996)"
     id="layer1">
    <g
       style="fill:#f2f2f2"
       id="g12"
       transform="matrix(0.35277777,0,0,-0.35277777,-21.4379,388.64761)">
      <g
         style="fill:#f2f2f2"
         id="g14">
        <g
           style="fill:#f2f2f2"
           id="g20">
          <g
             style="fill:#f2f2f2"
             id="g22">
            <path
               id="path34"
               style="fill:#f2f2f2;stroke:none"
               d="m 225.979,930.431 12.82,-12.82 17.858,17.857 -12.821,12.821 z" />
          </g>
        </g>
      </g>
    </g>
    <g
       style="fill:#e6e6e6"
       id="g36"
       transform="matrix(0.35277777,0,0,-0.35277777,-21.4379,388.64761)">
      <g
         style="fill:#e6e6e6"
         id="g38">
        <g
           style="fill:#e6e6e6"
           id="g44">
          <g
             style="fill:#e6e6e6"
             id="g46">
            <path
               id="path58"
               style="fill:#e6e6e6;stroke:none"
               d="m 243.836,948.289 12.821,12.82 -17.828,17.828 -12.821,-12.82 z" />
          </g>
        </g>
      </g>
    </g>
    <g
       style="fill:#ececec"
       id="g60"
       transform="matrix(0.35277777,0,0,-0.35277777,-21.4379,388.64761)">
      <g
         style="fill:#ececec"
         id="g62">
        <g
           style="fill:#ececec"
           id="g68">
          <g
             style="fill:#ececec"
             id="g70">
            <path
               id="path82"
               style="fill:#ececec;stroke:none"
               d="m 243.836,948.289 12.821,-12.821 12.82,12.821 -12.82,12.82 z" />
          </g>
        </g>
      </g>
    </g>
    <g
       style="fill:#ececec"
       id="g84"
       transform="matrix(0.35277777,0,0,-0.35277777,-21.4379,388.64761)">
      <g
         style="fill:#ececec"
         id="g86">
        <g
           style="fill:#ececec"
           id="g92">
          <g
             style="fill:#ececec"
             id="g94">
            <path
               id="path108"
               style="fill:#ececec;stroke:none"
               d="m 223.36,968.765 -12.82,12.82 -20.477,-20.476 12.82,-12.82 z" />
          </g>
        </g>
      </g>
    </g>
    <g
       style="fill:#ececec"
       id="g110"
       transform="matrix(0.35277777,0,0,-0.35277777,-21.4379,388.64761)">
      <g
         style="fill:#ececec"
         id="g112">
        <g
           style="fill:#ececec"
           id="g118">
          <g
             style="fill:#ececec"
             id="g120">
            <path
               id="path134"
               style="fill:#ececec;stroke:none"
               d="m 210.54,914.992 12.82,12.82 -20.477,20.477 -12.82,-12.821 z" />
          </g>
        </g>
      </g>
    </g>
    <g
       style="fill:#e6e6e6"
       id="g136"
       transform="matrix(0.35277777,0,0,-0.35277777,-21.4379,388.64761)">
      <g
         style="fill:#e6e6e6"
         id="g138">
        <g
           style="fill:#e6e6e6"
           id="g144">
          <g
             style="fill:#e6e6e6"
             id="g146">
            <path
               id="path160"
               style="fill:#e6e6e6;stroke:none"
               d="m 210.54,914.991 6.508,-6.509 c 3.486,-3.485 9.137,-3.485 12.623,0 v 0 l 6.509,6.509 -12.82,12.821 z" />
          </g>
        </g>
      </g>
    </g>
    <g
       style="fill:#cccccc"
       id="g162"
       transform="matrix(0.35277777,0,0,-0.35277777,-21.4379,388.64761)">
      <g
         style="fill:#cccccc"
         id="g164">
        <g
           style="fill:#cccccc"
           id="g170">
          <g
             style="fill:#cccccc"
             id="g172">
            <path
               id="path186"
               style="fill:#cccccc;stroke:none"
               d="m 183.554,954.6 c -3.486,-3.485 -3.486,-9.137 0,-12.623 v 0 l 6.509,-6.509 12.82,12.821 -12.82,12.82 z" />
          </g>
        </g>
      </g>
    </g>
    <g
       style="fill:#e6e6e6"
       id="g188"
       transform="matrix(0.35277777,0,0,-0.35277777,-21.4379,388.64761)">
      <g
         style="fill:#e6e6e6"
         id="g190">
        <g
           style="fill:#e6e6e6"
           id="g196">
          <g
             style="fill:#e6e6e6"
             id="g198">
            <path
               id="path212"
               style="fill:#e6e6e6;stroke:none"
               d="m 217.048,988.094 -6.508,-6.509 12.82,-12.82 12.82,12.82 -6.509,6.509 c -1.743,1.743 -4.027,2.615 -6.311,2.615 v 0 c -2.284,0 -4.569,-0.872 -6.312,-2.615" />
          </g>
        </g>
      </g>
    </g>
    <g
       style="fill:#ececec"
       id="g214"
       transform="matrix(0.35277777,0,0,-0.35277777,-21.4379,388.64761)">
      <g
         style="fill:#ececec"
         id="g216">
        <g
           style="fill:#ececec"
           id="g222">
          <g
             style="fill:#ececec"
             id="g224">
            <path
               id="path238"
               style="fill:#ececec;stroke:none"
               d="m 253.893,927.812 12.82,-12.821 20.476,20.477 -12.82,12.821 z" />
          </g>
        </g>
      </g>
    </g>
    <g
       style="fill:#ececec"
       id="g240"
       transform="matrix(0.35277777,0,0,-0.35277777,-21.4379,388.64761)">
      <g
         style="fill:#ececec"
         id="g242">
        <g
           style="fill:#ececec"
           id="g248">
          <g
             style="fill:#ececec"
             id="g250">
            <path
               id="path264"
               style="fill:#ececec;stroke:none"
               d="m 253.893,968.765 20.476,-20.476 12.82,12.82 -20.476,20.476 z" />
          </g>
        </g>
      </g>
    </g>
    <g
       style="fill:#e6e6e6"
       id="g266"
       transform="matrix(0.35277777,0,0,-0.35277777,-21.4379,388.64761)">
      <g
         style="fill:#e6e6e6"
         id="g268">
        <g
           style="fill:#e6e6e6"
           id="g274">
          <g
             style="fill:#e6e6e6"
             id="g276">
            <path
               id="path290"
               style="fill:#e6e6e6;stroke:none"
               d="m 247.581,988.094 -6.509,-6.509 12.821,-12.82 12.82,12.82 -6.509,6.509 c -1.742,1.743 -4.027,2.615 -6.311,2.615 v 0 c -2.285,0 -4.569,-0.872 -6.312,-2.615" />
          </g>
        </g>
      </g>
    </g>
    <g
       style="fill:#cccccc"
       id="g292"
       transform="matrix(0.35277777,0,0,-0.35277777,-21.4379,388.64761)">
      <g
         style="fill:#cccccc"
         id="g294">
        <g
           style="fill:#cccccc"
           id="g300">
          <g
             style="fill:#cccccc"
             id="g302">
            <path
               id="path316"
               style="fill:#cccccc;stroke:none"
               d="m 274.369,948.289 12.82,-12.821 6.509,6.509 c 3.486,3.486 3.486,9.138 0,12.623 v 0 l -6.509,6.509 z" />
          </g>
        </g>
      </g>
    </g>
    <g
       style="fill:#e6e6e6"
       id="g318"
       transform="matrix(0.35277777,0,0,-0.35277777,-21.4379,388.64761)">
      <g
         style="fill:#e6e6e6"
         id="g320">
        <g
           style="fill:#e6e6e6"
           id="g326">
          <g
             style="fill:#e6e6e6"
             id="g328">
            <path
               id="path342"
               style="fill:#e6e6e6;stroke:none"
               d="m 241.072,914.991 6.509,-6.509 c 3.486,-3.485 9.138,-3.485 12.623,0 v 0 l 6.509,6.509 -12.82,12.821 z" />
          </g>
        </g>
      </g>
    </g>
  </g>
</svg>
